<?xml version="1.0" standalone="no"?> <!DOCTYPE svg PUBLIC "-//W3C//DTD SVG 20010904//EN" "http://www.w3.org/TR/2001/REC-SVG-20010904/DTD/svg10.dtd"> <svg version="1.0" xmlns="http://www.w3.org/2000/svg" width="600.000000pt" height="600.000000pt" viewBox="0 0 600.000000 600.000000" preserveAspectRatio="xMidYMid meet"> <g transform="translate(0.000000,600.000000) scale(0.100000,-0.100000)" fill="#ffffff" stroke="none"> <path d="M2850 5983 c-393 -37 -629 -87 -890 -190 -719 -283 -1291 -812 -1630 -1508 -306 -628 -378 -1311 -210 -1980 159 -632 539 -1216 1055 -1619 370 -289 810 -496 1246 -585 208 -43 336 -55 584 -55 256 0 364 11 600 60 961 203 1795 909 2154 1824 349 889 260 1829 -249 2651 -198 320 -511 650 -826 871 -371 261 -809 437 -1251 503 -200 30 -443 42 -583 28z m914 -1938 c167 -29 307 -93 314 -144 5 -33 -21 -56 -91 -82 -84 -30 -161 -70 -228 -116 -66 -45 -144 -111 -138 -117 2 -2 41 -26 86 -54 97 -59 209 -141 314 -229 43 -34 80 -63 84 -63 4 0 64 35 133 78 168 105 402 238 479 274 51 24 65 27 83 18 18 -9 21 -18 16 -41 -3 -16 -62 -149 -131 -295 -69 -145 -125 -269 -125 -275 0 -5 38 -81 84 -167 182 -342 193 -374 131 -380 -35 -3 -202 93 -502 290 l-184 121 -31 -23 c-183 -135 -325 -229 -462 -305 l-69 -38 29 -24 c16 -13 71 -44 123 -71 51 -26 100 -57 108 -68 43 -66 -68 -135 -308 -194 -215 -52 -316 -65 -534 -64 -217 0 -297 10 -504 64 -488 127 -1001 482 -1220 843 l-23 38 40 52 c276 363 695 633 1147 740 121 29 333 57 435 57 59 0 75 6 181 59 178 89 346 128 560 130 64 1 156 -6 203 -14z"/> <path d="M2490 3503 c-73 -7 -236 -46 -319 -75 -110 -39 -225 -96 -328 -165 -84 -56 -283 -228 -291 -251 -7 -23 206 -223 320 -299 251 -168 460 -231 733 -220 231 9 409 60 670 192 207 104 571 336 582 372 6 18 -228 168 -388 247 -285 142 -543 207 -802 204 -78 0 -158 -3 -177 -5z m-344 -332 c31 -19 64 -74 64 -108 0 -10 -9 -36 -19 -59 -31 -68 -114 -94 -178 -54 -64 39 -84 111 -49 178 31 60 120 81 182 43z"/> </g> </svg>