<?xml version="1.0" standalone="no"?> <!DOCTYPE svg PUBLIC "-//W3C//DTD SVG 20010904//EN" "http://www.w3.org/TR/2001/REC-SVG-20010904/DTD/svg10.dtd"> <svg version="1.0" xmlns="http://www.w3.org/2000/svg" width="600.000000pt" height="600.000000pt" viewBox="0 0 600.000000 600.000000" preserveAspectRatio="xMidYMid meet"> <g transform="translate(0.000000,600.000000) scale(0.100000,-0.100000)" fill="#393dac" stroke="none"> <path d="M3565 4274 c-154 -28 -311 -90 -481 -190 l-97 -56 -131 18 c-184 26 -620 27 -786 1 -552 -86 -983 -286 -1440 -669 -143 -120 -311 -277 -340 -318 l-19 -27 79 -120 c284 -429 771 -807 1320 -1026 135 -54 310 -106 476 -141 366 -77 850 -79 1123 -6 127 35 129 40 31 91 -100 52 -246 157 -234 169 5 4 43 22 84 40 97 42 382 185 535 268 219 118 474 272 788 476 l88 57 257 -169 c323 -213 431 -280 612 -379 205 -112 258 -131 288 -101 29 29 6 89 -108 283 -132 225 -280 493 -280 508 0 26 96 240 251 559 141 289 162 345 139 373 -31 37 -110 6 -426 -165 -212 -115 -239 -129 -469 -262 -71 -41 -160 -92 -197 -112 l-67 -37 -128 77 c-184 110 -358 203 -592 317 -114 55 -208 102 -210 104 -9 7 33 132 65 193 19 36 63 100 99 142 36 42 65 81 65 87 0 31 -160 39 -295 15z m-765 -649 c252 -39 544 -121 773 -217 205 -87 589 -290 591 -313 0 -10 -310 -208 -622 -396 -519 -311 -803 -417 -1209 -449 -439 -34 -846 100 -1238 410 -95 75 -315 294 -315 314 0 13 88 95 195 182 188 153 454 295 710 379 143 47 399 98 545 109 116 8 468 -3 570 -19z"/> <path d="M1484 3220 c-142 -32 -198 -192 -106 -302 32 -38 94 -67 142 -68 49 0 118 37 154 83 27 34 31 47 31 101 0 51 -5 70 -28 104 -41 63 -124 98 -193 82z"/> </g> </svg>